<svg width="51" height="73" viewBox="0 0 51 73" fill="none" xmlns="http://www.w3.org/2000/svg"><path d="M48.94 18.146c-.258-.972-.784-2.009-1.173-2.916C43.11 4.018 32.938 0 24.724 0 13.728 0 1.617 7.388 0 22.617v3.112c0 .13.045 1.296.108 1.88.906 7.257 6.622 14.97 10.89 22.229 4.593 7.776 9.358 15.425 14.079 23.071 2.91-4.99 5.811-10.045 8.656-14.906.775-1.426 1.675-2.852 2.451-4.213.518-.907 1.506-1.813 1.958-2.657 4.591-8.424 11.983-16.914 11.983-25.275v-3.434c0-.907-1.121-4.082-1.184-4.278zm-24.015 15.62c-3.232 0-6.77-1.62-8.516-6.093-.26-.711-.24-2.138-.24-2.269v-2.009c0-5.702 4.832-8.295 9.035-8.295 5.174 0 9.176 4.149 9.176 9.334s-4.28 9.332-9.455 9.332z" fill="#fff"/></svg>