<svg width="136" height="24" viewBox="0 0 136 24" fill="none" xmlns="http://www.w3.org/2000/svg"><path d="M20.022 7.135c-1.984-1.801-5.083-2.84-7.452-2.84-4.353 0-7.384 3.497-7.384 7.72 0 3.948 2.647 7.687 7.732 7.687 2.055 0 4.353-.553 5.782-1.523v-3.807h-6.868v-4.086H23.36v10.147c-2.96 2.182-7.104 3.533-10.656 3.533C5.431 23.96 0 18.632 0 11.983 0 5.368 5.503 0 12.54 0c3.583 0 7.523 1.42 10.797 4.053l-3.315 3.082zM40.05 0c7.21 0 12.988 5.368 12.988 11.949C53.037 18.666 47.255 24 40.049 24c-7.206 0-12.85-5.334-12.85-12.051C27.198 5.368 32.843 0 40.048 0zm0 19.744c4.353 0 7.763-3.532 7.763-7.79a7.635 7.635 0 0 0-2.283-5.431 7.753 7.753 0 0 0-5.48-2.224c-4.283 0-7.626 3.463-7.626 7.654 0 4.255 3.343 7.787 7.626 7.787v.004zM62.48.698v19.15h13.966v3.462H58.58V.693l3.9.005zm26.087 0h3.551L102.67 23.31h-4.29l-2.75-6.095H84.804l-2.716 6.095h-4.075L88.566.698zm-2.368 13.397h8.044l-3.9-8.758h-.209l-3.935 8.758zM104.907.693l6.507 16.627h.209L117.02.693h2.787l5.398 16.627h.209L131.92.693H136l-8.706 22.614h-3.9l-4.98-15.133h-.209l-4.98 15.133h-3.901L100.619.693h4.288z" fill="#fff"/></svg>