<svg width="103" height="70" viewBox="0 0 103 70" fill="none" xmlns="http://www.w3.org/2000/svg"><path d="M78.9 21.582c-1.186.004-2.37.1-3.542.288A40.684 40.684 0 0 1 82.548 0C65.596 18.357 55.101 27.98 55.101 45.314c0 4.668 1.385 9.231 3.98 13.112a23.627 23.627 0 0 0 36.333 3.576 23.594 23.594 0 0 0-3.579-36.311 23.624 23.624 0 0 0-13.12-3.978l.184-.131zM23.746 21.582c-1.186.003-2.37.1-3.542.288A40.473 40.473 0 0 1 27.394 0C10.312 18.357 0 27.98 0 45.314c-.026 4.7 1.345 9.3 3.938 13.22a23.76 23.76 0 0 0 36.552 3.738 23.728 23.728 0 0 0 5.207-25.878 23.735 23.735 0 0 0-8.745-10.672 23.756 23.756 0 0 0-13.206-4.009v-.131z" fill="#ECF0F4"/></svg>