<svg width="73" height="50" viewBox="0 0 73 50" fill="none" xmlns="http://www.w3.org/2000/svg"><path d="M56.113 15.634c-.844.003-1.687.073-2.52.21A29.844 29.844 0 0 1 58.706 0C46.652 13.298 39.187 20.27 39.187 32.827c0 3.381.986 6.687 2.83 9.498a16.863 16.863 0 0 0 7.538 6.298 16.519 16.519 0 0 0 9.703.973 16.705 16.705 0 0 0 8.6-4.68 17.196 17.196 0 0 0 4.596-8.754 17.384 17.384 0 0 0-.956-9.878 17.035 17.035 0 0 0-6.186-7.673 16.583 16.583 0 0 0-9.33-2.882l.13-.095zM16.888 15.634c-.844.002-1.686.072-2.52.21A29.689 29.689 0 0 1 19.483 0C7.334 13.298 0 20.27 0 32.827a17.416 17.416 0 0 0 2.8 9.577 16.96 16.96 0 0 0 7.56 6.374 16.61 16.61 0 0 0 9.765 1.017 16.794 16.794 0 0 0 8.671-4.683 17.288 17.288 0 0 0 4.648-8.801c.66-3.338.33-6.8-.945-9.946a17.13 17.13 0 0 0-6.219-7.731 16.676 16.676 0 0 0-9.392-2.905v-.095z" fill="#222221"/></svg>